<svg id="e951be26-af6e-4657-9475-8950c40c5c3d" data-name="Capa 1" xmlns="http://www.w3.org/2000/svg" viewBox="0 0 426.99999 511.99997"><defs><style>.abfa2676-1f0f-438a-a797-b0140afbf02d{fill:#fff;}</style></defs><path class="abfa2676-1f0f-438a-a797-b0140afbf02d" d="M324.259,40.903H187.741a15.10709,15.10709,0,0,0-15.077,15.102v18a33.11838,33.11838,0,0,0,33.088,33.074H306.247a33.11839,33.11839,0,0,0,33.088-33.074v-18a15.10559,15.10559,0,0,0-15.076-15.102Zm-4.923,33.102a13.09633,13.09633,0,0,1-13.088,13.074H205.752a13.09567,13.09567,0,0,1-13.088-13.074V60.903H319.336Z" transform="translate(-42.50001 -0.00003)"/><path class="abfa2676-1f0f-438a-a797-b0140afbf02d" d="M469.5,322.911a30.77058,30.77058,0,0,0-20.734-29.043V252.062a30.70647,30.70647,0,0,0,0-58.084V29.672A29.71246,29.71246,0,0,0,419.081,0H92.919A29.71248,29.71248,0,0,0,63.234,29.672V193.978a30.70647,30.70647,0,0,0,0,58.084v41.806a30.70718,30.70718,0,0,0,0,58.085v41.806a30.7261,30.7261,0,0,0,0,58.112v30.457A29.71183,29.71183,0,0,0,92.919,512H419.08a29.71183,29.71183,0,0,0,29.685-29.672V451.871a30.72609,30.72609,0,0,0,0-58.112V351.953A30.76982,30.76982,0,0,0,469.5,322.911ZM83.234,29.672A9.68978,9.68978,0,0,1,92.919,20H419.08a9.68978,9.68978,0,0,1,9.685,9.672V133.85H83.234Zm0,124.178H428.765v38.449H83.234ZM62.5,223.02a10.73921,10.73921,0,0,1,10.734-10.721H438.765a10.721,10.721,0,1,1,0,21.442H73.234A10.74052,10.74052,0,0,1,62.5,223.02ZM428.766,482.328A9.68977,9.68977,0,0,1,419.081,492H92.919a9.68977,9.68977,0,0,1-9.685-9.672V453.551H428.765v28.777ZM449.5,422.802a10.75352,10.75352,0,0,1-10.734,10.749H73.234a10.735,10.735,0,0,1,0-21.47H438.765A10.73941,10.73941,0,0,1,449.5,422.802ZM83.234,392.081V353.632H428.765v38.449Zm355.532-58.45H73.234a10.721,10.721,0,1,1,0-21.442H211.085a10,10,0,0,0,0-20H83.234V253.74H428.765v38.449H300.943a10,10,0,0,0,0,20H438.765a10.721,10.721,0,1,1,.001,21.442Z" transform="translate(-42.50001 -0.00003)"/><path class="abfa2676-1f0f-438a-a797-b0140afbf02d" d="M256.014,292.189a10,10,0,1,0,0,20h.028a10,10,0,0,0-.028-20Z" transform="translate(-42.50001 -0.00003)"/></svg>